<svg xmlns="http://www.w3.org/2000/svg" viewBox="0 0 861 385.5403">
    <defs>
        <style>.a{fill:#fafbff;}.a,.b{stroke:#000;stroke-miterlimit:10;}.b{fill:#334d5c;}</style>
    </defs>
    <title>Projektor13</title>
    <path class="a" d="M454.9565,134.4783" transform="translate(-234 -140.618)"/>
    <path class="b"
          d="M1094.5,195.5v-34H528.468a183.9885,183.9885,0,0,0-168.3412,0H234.5v344H360.5663a183.9752,183.9752,0,0,0,167.4623,0H1094.5v-34h-267v-31h267v-29h-146v-30h146v-33h-267v-30h267v-30h-146v-30h146v-32h-267v-31h267ZM444.9305,498.2329c-88.9355,0-161.032-73.8508-161.032-164.9505s72.0965-164.9505,161.032-164.9505,161.0319,73.8509,161.0319,164.9505S533.866,498.2329,444.9305,498.2329Z"
          transform="translate(-234 -140.618)"/>
</svg>